<svg xmlns="http://www.w3.org/2000/svg" xmlns:xlink="http://www.w3.org/1999/xlink" width="743" height="148" viewBox="0 0 743 148">
  <defs>
    <clipPath id="clip-path">
      <rect width="177" height="5" fill="none"/>
    </clipPath>
    <clipPath id="clip-path-2">
      <rect width="162" height="5" fill="none"/>
    </clipPath>
  </defs>
  <g id="Group_72" data-name="Group 72" transform="translate(-325 -323)">
    <path id="box-open-solid" d="M98.988,84.076a11.275,11.275,0,0,1-9.63-5.443L74.4,53.837l-14.933,24.8A11.313,11.313,0,0,1,49.815,84.1a10.7,10.7,0,0,1-3.094-.442L14.854,74.539v41.4a7.42,7.42,0,0,0,5.629,7.211l50.29,12.584a15.12,15.12,0,0,0,7.211,0l50.336-12.584a7.46,7.46,0,0,0,5.629-7.211v-41.4l-31.867,9.095A10.7,10.7,0,0,1,98.988,84.076Zm49.452-26.1L136.461,34.065a3.8,3.8,0,0,0-3.885-2.07L74.4,39.415l21.33,35.38a3.823,3.823,0,0,0,4.3,1.7L146.068,63.35A3.831,3.831,0,0,0,148.44,57.977ZM12.342,34.065.363,57.977a3.792,3.792,0,0,0,2.349,5.35L48.745,76.469a3.823,3.823,0,0,0,4.3-1.7L74.4,39.415l-58.2-7.42a3.8,3.8,0,0,0-3.861,2.07Z" transform="translate(609.042 291.037)" fill="#0a6ffb"/>
    <path id="user-solid" d="M44.061,50.356A25.178,25.178,0,1,0,18.883,25.178,25.176,25.176,0,0,0,44.061,50.356ZM61.686,56.65H58.4a34.241,34.241,0,0,1-28.679,0H26.437A26.444,26.444,0,0,0,0,83.087V91.27a9.444,9.444,0,0,0,9.442,9.442H78.681a9.444,9.444,0,0,0,9.442-9.442V83.087A26.444,26.444,0,0,0,61.686,56.65Z" transform="translate(345.701 323)" fill="#0a6ffb"/>
    <path id="server-solid" d="M107.905,60.775H7.194A7.194,7.194,0,0,1,0,53.581V39.194A7.194,7.194,0,0,1,7.194,32H107.905a7.194,7.194,0,0,1,7.194,7.194V53.581A7.194,7.194,0,0,1,107.905,60.775ZM97.115,40.992a5.4,5.4,0,1,0,5.4,5.4A5.4,5.4,0,0,0,97.115,40.992Zm-14.387,0a5.4,5.4,0,1,0,5.4,5.4A5.4,5.4,0,0,0,82.727,40.992Zm25.178,55.751H7.194A7.194,7.194,0,0,1,0,89.55V75.162a7.194,7.194,0,0,1,7.194-7.194H107.905a7.194,7.194,0,0,1,7.194,7.194V89.55A7.194,7.194,0,0,1,107.905,96.743ZM97.115,76.961a5.4,5.4,0,1,0,5.4,5.4A5.4,5.4,0,0,0,97.115,76.961Zm-14.387,0a5.4,5.4,0,1,0,5.4,5.4A5.4,5.4,0,0,0,82.727,76.961Zm25.178,55.751H7.194A7.194,7.194,0,0,1,0,125.518V111.131a7.194,7.194,0,0,1,7.194-7.194H107.905a7.194,7.194,0,0,1,7.194,7.194v14.387A7.194,7.194,0,0,1,107.905,132.712ZM97.115,112.929a5.4,5.4,0,1,0,5.4,5.4A5.4,5.4,0,0,0,97.115,112.929Zm-14.387,0a5.4,5.4,0,1,0,5.4,5.4A5.4,5.4,0,0,0,82.727,112.929Z" transform="translate(932.842 291)" fill="#0a6ffb"/>
    <text id="Profile_Setup" data-name="Profile Setup" transform="translate(325 466)" fill="#0a6ffb" font-size="22" font-family="WorkSans-Regular, Work Sans" letter-spacing="-0.043em" opacity="0.65"><tspan x="0" y="0">Profile Setup</tspan></text>
    <text id="Finding_Products" data-name="Finding Products" transform="translate(599 466)" fill="#0a6ffb" font-size="22" font-family="WorkSans-Regular, Work Sans" letter-spacing="-0.043em" opacity="0.65"><tspan x="0" y="0">Finding Products</tspan></text>
    <text id="Pulling_Reviews" data-name="Pulling Reviews" transform="translate(914 466)" fill="#0a6ffb" font-size="22" font-family="WorkSans-Regular, Work Sans" letter-spacing="-0.043em" opacity="0.65"><tspan x="0" y="0">Pulling Reviews</tspan></text>
    <g id="Repeat_Grid_1" data-name="Repeat Grid 1" transform="translate(434 373)" clip-path="url(#clip-path)">
      <g transform="translate(-442 -403)">
        <rect id="Rectangle_2029" data-name="Rectangle 2029" width="21" height="5" transform="translate(442 403)" fill="#0a6ffb"/>
      </g>
      <g transform="translate(-411 -403)">
        <rect id="Rectangle_2029-2" data-name="Rectangle 2029" width="21" height="5" transform="translate(442 403)" fill="#0a6ffb"/>
      </g>
      <g transform="translate(-380 -403)">
        <rect id="Rectangle_2029-3" data-name="Rectangle 2029" width="21" height="5" transform="translate(442 403)" fill="#0a6ffb"/>
      </g>
      <g transform="translate(-349 -403)">
        <rect id="Rectangle_2029-4" data-name="Rectangle 2029" width="21" height="5" transform="translate(442 403)" fill="#0a6ffb"/>
      </g>
      <g transform="translate(-318 -403)">
        <rect id="Rectangle_2029-5" data-name="Rectangle 2029" width="21" height="5" transform="translate(442 403)" fill="#0a6ffb"/>
      </g>
      <g transform="translate(-287 -403)">
        <rect id="Rectangle_2029-6" data-name="Rectangle 2029" width="21" height="5" transform="translate(442 403)" fill="#0a6ffb"/>
      </g>
    </g>
    <g id="Repeat_Grid_2" data-name="Repeat Grid 2" transform="translate(758 373)" clip-path="url(#clip-path-2)">
      <g transform="translate(-442 -403)">
        <rect id="Rectangle_2029-7" data-name="Rectangle 2029" width="21" height="5" transform="translate(442 403)" fill="#0a6ffb"/>
      </g>
      <g transform="translate(-411 -403)">
        <rect id="Rectangle_2029-8" data-name="Rectangle 2029" width="21" height="5" transform="translate(442 403)" fill="#0a6ffb"/>
      </g>
      <g transform="translate(-380 -403)">
        <rect id="Rectangle_2029-9" data-name="Rectangle 2029" width="21" height="5" transform="translate(442 403)" fill="#0a6ffb"/>
      </g>
      <g transform="translate(-349 -403)">
        <rect id="Rectangle_2029-10" data-name="Rectangle 2029" width="21" height="5" transform="translate(442 403)" fill="#0a6ffb"/>
      </g>
      <g transform="translate(-318 -403)">
        <rect id="Rectangle_2029-11" data-name="Rectangle 2029" width="21" height="5" transform="translate(442 403)" fill="#0a6ffb"/>
      </g>
      <g transform="translate(-287 -403)">
        <rect id="Rectangle_2029-12" data-name="Rectangle 2029" width="21" height="5" transform="translate(442 403)" fill="#0a6ffb"/>
      </g>
    </g>
  </g>
</svg>
